<?xml version="1.0" standalone="no"?>
<!DOCTYPE svg PUBLIC "-//W3C//DTD SVG 20010904//EN"
 "http://www.w3.org/TR/2001/REC-SVG-20010904/DTD/svg10.dtd">
<svg version="1.0" xmlns="http://www.w3.org/2000/svg"
 width="800.000000pt" height="150.000000pt" viewBox="0 0 800.000000 150.000000"
 preserveAspectRatio="xMidYMid meet">

<g transform="translate(0.000000,150.000000) scale(0.100000,-0.100000)"
fill="#000000" stroke="none">
<path d="M5142 568 c-8 -8 -12 -49 -12 -130 l0 -118 30 0 30 0 0 93 0 92 61
-92 c57 -85 65 -93 94 -93 29 0 37 8 94 93 l61 92 0 -92 0 -93 30 0 31 0 -3
121 c-2 99 -6 124 -19 132 -34 22 -63 -1 -124 -98 -33 -52 -64 -95 -70 -95 -5
1 -39 44 -75 98 -50 75 -71 98 -90 100 -14 2 -31 -3 -38 -10z"/>
<path d="M5690 450 l0 -130 155 0 c148 0 155 1 155 20 0 19 -7 20 -120 20
l-120 0 0 45 0 45 95 0 c78 0 95 3 95 15 0 12 -17 15 -95 15 -95 0 -95 0 -95
25 l0 25 120 0 120 0 0 25 0 25 -155 0 -155 0 0 -130z"/>
<path d="M6110 555 l0 -24 118 -3 117 -3 -112 -75 c-114 -77 -127 -89 -117
-115 5 -12 32 -15 155 -15 142 0 149 1 149 20 0 18 -8 20 -117 22 l-118 3 113
79 c63 43 116 85 119 92 3 8 0 21 -7 29 -10 12 -41 15 -156 15 l-144 0 0 -25z"/>
<path d="M6540 555 l0 -24 118 -3 117 -3 -112 -75 c-114 -77 -127 -89 -117
-115 5 -12 32 -15 155 -15 142 0 149 1 149 20 0 18 -8 20 -117 22 l-118 3 113
79 c63 43 116 85 119 92 3 8 0 21 -7 29 -10 12 -41 15 -156 15 l-144 0 0 -25z"/>
<path d="M6970 450 l0 -130 35 0 35 0 0 130 0 130 -35 0 -35 0 0 -130z"/>
<path d="M7213 570 c-36 -15 -45 -46 -41 -137 4 -112 6 -113 163 -113 158 0
159 0 163 117 3 77 1 92 -16 113 -19 24 -26 25 -134 27 -62 2 -123 -2 -135 -7z
m215 -122 l-3 -83 -90 0 -90 0 -3 83 -3 82 96 0 96 0 -3 -82z"/>
</g>
</svg>
